<mxfile host="app.diagrams.net" modified="2023-11-07T06:19:35.561Z" agent="Mozilla/5.0 (Windows NT 10.0; Win64; x64) AppleWebKit/537.36 (KHTML, like Gecko) Chrome/119.0.0.0 Safari/537.36" etag="nCMEkfmTMyS5kqjvte_s" version="21.5.0" type="device">
  <diagram name="Страница 1" id="GJiFtdkh1pTYWeu0c0Io">
    <mxGraphModel dx="1050" dy="589" grid="0" gridSize="10" guides="1" tooltips="1" connect="1" arrows="1" fold="1" page="1" pageScale="1" pageWidth="827" pageHeight="1169" math="0" shadow="0">
      <root>
        <mxCell id="0" />
        <mxCell id="1" parent="0" />
        <mxCell id="3KBALZcBaJAxJALAeQo4-1" value="«Client»&lt;br&gt;&lt;b&gt;Component&lt;/b&gt;" style="html=1;dropTarget=0;whiteSpace=wrap;" vertex="1" parent="1">
          <mxGeometry x="360" y="40" width="160" height="80" as="geometry" />
        </mxCell>
        <mxCell id="3KBALZcBaJAxJALAeQo4-2" value="" style="shape=module;jettyWidth=8;jettyHeight=4;" vertex="1" parent="3KBALZcBaJAxJALAeQo4-1">
          <mxGeometry x="1" width="20" height="20" relative="1" as="geometry">
            <mxPoint x="-27" y="7" as="offset" />
          </mxGeometry>
        </mxCell>
        <mxCell id="3KBALZcBaJAxJALAeQo4-3" value="«Web server»&lt;br&gt;&lt;b&gt;Component&lt;/b&gt;" style="html=1;dropTarget=0;whiteSpace=wrap;" vertex="1" parent="1">
          <mxGeometry x="360" y="200" width="160" height="80" as="geometry" />
        </mxCell>
        <mxCell id="3KBALZcBaJAxJALAeQo4-4" value="" style="shape=module;jettyWidth=8;jettyHeight=4;" vertex="1" parent="3KBALZcBaJAxJALAeQo4-3">
          <mxGeometry x="1" width="20" height="20" relative="1" as="geometry">
            <mxPoint x="-27" y="7" as="offset" />
          </mxGeometry>
        </mxCell>
        <mxCell id="3KBALZcBaJAxJALAeQo4-5" value="«Application server»&lt;br&gt;&lt;b&gt;Component&lt;/b&gt;" style="html=1;dropTarget=0;whiteSpace=wrap;" vertex="1" parent="1">
          <mxGeometry x="360" y="360" width="160" height="80" as="geometry" />
        </mxCell>
        <mxCell id="3KBALZcBaJAxJALAeQo4-6" value="" style="shape=module;jettyWidth=8;jettyHeight=4;" vertex="1" parent="3KBALZcBaJAxJALAeQo4-5">
          <mxGeometry x="1" width="20" height="20" relative="1" as="geometry">
            <mxPoint x="-27" y="7" as="offset" />
          </mxGeometry>
        </mxCell>
        <mxCell id="3KBALZcBaJAxJALAeQo4-7" value="«Data Base»&lt;br&gt;&lt;b&gt;Component&lt;/b&gt;" style="html=1;dropTarget=0;whiteSpace=wrap;" vertex="1" parent="1">
          <mxGeometry x="360" y="520" width="160" height="80" as="geometry" />
        </mxCell>
        <mxCell id="3KBALZcBaJAxJALAeQo4-8" value="" style="shape=module;jettyWidth=8;jettyHeight=4;" vertex="1" parent="3KBALZcBaJAxJALAeQo4-7">
          <mxGeometry x="1" width="20" height="20" relative="1" as="geometry">
            <mxPoint x="-27" y="7" as="offset" />
          </mxGeometry>
        </mxCell>
        <mxCell id="3KBALZcBaJAxJALAeQo4-9" value="" style="shape=providedRequiredInterface;html=1;verticalLabelPosition=bottom;sketch=0;rotation=90;" vertex="1" parent="1">
          <mxGeometry x="390" y="160" width="20" height="20" as="geometry" />
        </mxCell>
        <mxCell id="3KBALZcBaJAxJALAeQo4-10" value="" style="shape=providedRequiredInterface;html=1;verticalLabelPosition=bottom;sketch=0;rotation=90;" vertex="1" parent="1">
          <mxGeometry x="390" y="320" width="20" height="20" as="geometry" />
        </mxCell>
        <mxCell id="3KBALZcBaJAxJALAeQo4-11" value="" style="shape=providedRequiredInterface;html=1;verticalLabelPosition=bottom;sketch=0;rotation=90;" vertex="1" parent="1">
          <mxGeometry x="390" y="480" width="20" height="20" as="geometry" />
        </mxCell>
        <mxCell id="3KBALZcBaJAxJALAeQo4-12" value="" style="shape=providedRequiredInterface;html=1;verticalLabelPosition=bottom;sketch=0;rotation=-90;" vertex="1" parent="1">
          <mxGeometry x="470" y="160" width="20" height="20" as="geometry" />
        </mxCell>
        <mxCell id="3KBALZcBaJAxJALAeQo4-13" value="" style="shape=providedRequiredInterface;html=1;verticalLabelPosition=bottom;sketch=0;rotation=-90;" vertex="1" parent="1">
          <mxGeometry x="470" y="320" width="20" height="20" as="geometry" />
        </mxCell>
        <mxCell id="3KBALZcBaJAxJALAeQo4-14" value="" style="shape=providedRequiredInterface;html=1;verticalLabelPosition=bottom;sketch=0;rotation=-90;" vertex="1" parent="1">
          <mxGeometry x="470" y="480" width="20" height="20" as="geometry" />
        </mxCell>
        <mxCell id="3KBALZcBaJAxJALAeQo4-19" value="" style="endArrow=none;html=1;rounded=0;entryX=0.25;entryY=1;entryDx=0;entryDy=0;exitX=0;exitY=0.5;exitDx=0;exitDy=0;exitPerimeter=0;" edge="1" parent="1" source="3KBALZcBaJAxJALAeQo4-9" target="3KBALZcBaJAxJALAeQo4-1">
          <mxGeometry width="50" height="50" relative="1" as="geometry">
            <mxPoint x="390" y="270" as="sourcePoint" />
            <mxPoint x="440" y="220" as="targetPoint" />
          </mxGeometry>
        </mxCell>
        <mxCell id="3KBALZcBaJAxJALAeQo4-20" value="" style="endArrow=none;html=1;rounded=0;entryX=0.75;entryY=1;entryDx=0;entryDy=0;exitX=1;exitY=0.5;exitDx=0;exitDy=0;exitPerimeter=0;" edge="1" parent="1" source="3KBALZcBaJAxJALAeQo4-12" target="3KBALZcBaJAxJALAeQo4-1">
          <mxGeometry width="50" height="50" relative="1" as="geometry">
            <mxPoint x="510" y="170" as="sourcePoint" />
            <mxPoint x="510" y="130" as="targetPoint" />
          </mxGeometry>
        </mxCell>
        <mxCell id="3KBALZcBaJAxJALAeQo4-21" value="" style="endArrow=none;html=1;rounded=0;entryX=0.25;entryY=1;entryDx=0;entryDy=0;exitX=0;exitY=0.5;exitDx=0;exitDy=0;exitPerimeter=0;" edge="1" parent="1" source="3KBALZcBaJAxJALAeQo4-10" target="3KBALZcBaJAxJALAeQo4-3">
          <mxGeometry width="50" height="50" relative="1" as="geometry">
            <mxPoint x="420" y="180" as="sourcePoint" />
            <mxPoint x="420" y="140" as="targetPoint" />
          </mxGeometry>
        </mxCell>
        <mxCell id="3KBALZcBaJAxJALAeQo4-22" value="" style="endArrow=none;html=1;rounded=0;entryX=0.75;entryY=1;entryDx=0;entryDy=0;exitX=1;exitY=0.5;exitDx=0;exitDy=0;exitPerimeter=0;" edge="1" parent="1" source="3KBALZcBaJAxJALAeQo4-13" target="3KBALZcBaJAxJALAeQo4-3">
          <mxGeometry width="50" height="50" relative="1" as="geometry">
            <mxPoint x="430" y="190" as="sourcePoint" />
            <mxPoint x="430" y="150" as="targetPoint" />
          </mxGeometry>
        </mxCell>
        <mxCell id="3KBALZcBaJAxJALAeQo4-23" value="" style="endArrow=none;html=1;rounded=0;entryX=0.25;entryY=1;entryDx=0;entryDy=0;exitX=0;exitY=0.5;exitDx=0;exitDy=0;exitPerimeter=0;" edge="1" parent="1" source="3KBALZcBaJAxJALAeQo4-11" target="3KBALZcBaJAxJALAeQo4-5">
          <mxGeometry width="50" height="50" relative="1" as="geometry">
            <mxPoint x="440" y="200" as="sourcePoint" />
            <mxPoint x="440" y="160" as="targetPoint" />
          </mxGeometry>
        </mxCell>
        <mxCell id="3KBALZcBaJAxJALAeQo4-24" value="" style="endArrow=none;html=1;rounded=0;entryX=0.75;entryY=1;entryDx=0;entryDy=0;exitX=1;exitY=0.5;exitDx=0;exitDy=0;exitPerimeter=0;" edge="1" parent="1" source="3KBALZcBaJAxJALAeQo4-14" target="3KBALZcBaJAxJALAeQo4-5">
          <mxGeometry width="50" height="50" relative="1" as="geometry">
            <mxPoint x="450" y="210" as="sourcePoint" />
            <mxPoint x="450" y="170" as="targetPoint" />
          </mxGeometry>
        </mxCell>
        <mxCell id="3KBALZcBaJAxJALAeQo4-25" value="" style="endArrow=none;html=1;rounded=0;entryX=1;entryY=0.5;entryDx=0;entryDy=0;exitX=0.25;exitY=0;exitDx=0;exitDy=0;entryPerimeter=0;" edge="1" parent="1" source="3KBALZcBaJAxJALAeQo4-3" target="3KBALZcBaJAxJALAeQo4-9">
          <mxGeometry width="50" height="50" relative="1" as="geometry">
            <mxPoint x="460" y="220" as="sourcePoint" />
            <mxPoint x="460" y="180" as="targetPoint" />
          </mxGeometry>
        </mxCell>
        <mxCell id="3KBALZcBaJAxJALAeQo4-26" value="" style="endArrow=none;html=1;rounded=0;entryX=0;entryY=0.5;entryDx=0;entryDy=0;exitX=0.75;exitY=0;exitDx=0;exitDy=0;entryPerimeter=0;" edge="1" parent="1" source="3KBALZcBaJAxJALAeQo4-3" target="3KBALZcBaJAxJALAeQo4-12">
          <mxGeometry width="50" height="50" relative="1" as="geometry">
            <mxPoint x="470" y="230" as="sourcePoint" />
            <mxPoint x="470" y="190" as="targetPoint" />
          </mxGeometry>
        </mxCell>
        <mxCell id="3KBALZcBaJAxJALAeQo4-28" value="" style="endArrow=none;html=1;rounded=0;entryX=0;entryY=0.5;entryDx=0;entryDy=0;exitX=0.75;exitY=0;exitDx=0;exitDy=0;entryPerimeter=0;" edge="1" parent="1" source="3KBALZcBaJAxJALAeQo4-5" target="3KBALZcBaJAxJALAeQo4-13">
          <mxGeometry width="50" height="50" relative="1" as="geometry">
            <mxPoint x="490" y="250" as="sourcePoint" />
            <mxPoint x="490" y="210" as="targetPoint" />
          </mxGeometry>
        </mxCell>
        <mxCell id="3KBALZcBaJAxJALAeQo4-29" value="" style="endArrow=none;html=1;rounded=0;entryX=1;entryY=0.5;entryDx=0;entryDy=0;exitX=0.25;exitY=0;exitDx=0;exitDy=0;entryPerimeter=0;" edge="1" parent="1" source="3KBALZcBaJAxJALAeQo4-5" target="3KBALZcBaJAxJALAeQo4-10">
          <mxGeometry width="50" height="50" relative="1" as="geometry">
            <mxPoint x="500" y="260" as="sourcePoint" />
            <mxPoint x="500" y="220" as="targetPoint" />
          </mxGeometry>
        </mxCell>
        <mxCell id="3KBALZcBaJAxJALAeQo4-30" value="" style="endArrow=none;html=1;rounded=0;entryX=1;entryY=0.5;entryDx=0;entryDy=0;exitX=0.25;exitY=0;exitDx=0;exitDy=0;entryPerimeter=0;" edge="1" parent="1" source="3KBALZcBaJAxJALAeQo4-7" target="3KBALZcBaJAxJALAeQo4-11">
          <mxGeometry width="50" height="50" relative="1" as="geometry">
            <mxPoint x="510" y="270" as="sourcePoint" />
            <mxPoint x="510" y="230" as="targetPoint" />
          </mxGeometry>
        </mxCell>
        <mxCell id="3KBALZcBaJAxJALAeQo4-31" value="" style="endArrow=none;html=1;rounded=0;entryX=0;entryY=0.5;entryDx=0;entryDy=0;exitX=0.75;exitY=0;exitDx=0;exitDy=0;entryPerimeter=0;" edge="1" parent="1" source="3KBALZcBaJAxJALAeQo4-7" target="3KBALZcBaJAxJALAeQo4-14">
          <mxGeometry width="50" height="50" relative="1" as="geometry">
            <mxPoint x="520" y="280" as="sourcePoint" />
            <mxPoint x="520" y="240" as="targetPoint" />
          </mxGeometry>
        </mxCell>
        <mxCell id="3KBALZcBaJAxJALAeQo4-32" value="&lt;b&gt;Данные&lt;/b&gt;" style="text;html=1;strokeColor=none;fillColor=none;align=center;verticalAlign=middle;whiteSpace=wrap;rounded=0;" vertex="1" parent="1">
          <mxGeometry x="330" y="475" width="60" height="30" as="geometry" />
        </mxCell>
        <mxCell id="3KBALZcBaJAxJALAeQo4-33" value="&lt;b&gt;SQL запрос&lt;/b&gt;" style="text;html=1;strokeColor=none;fillColor=none;align=center;verticalAlign=middle;whiteSpace=wrap;rounded=0;" vertex="1" parent="1">
          <mxGeometry x="490" y="475" width="60" height="30" as="geometry" />
        </mxCell>
        <mxCell id="3KBALZcBaJAxJALAeQo4-34" value="&lt;b&gt;HTTP response (json)&lt;/b&gt;" style="text;html=1;strokeColor=none;fillColor=none;align=center;verticalAlign=middle;whiteSpace=wrap;rounded=0;" vertex="1" parent="1">
          <mxGeometry x="284" y="152" width="100" height="30" as="geometry" />
        </mxCell>
        <mxCell id="3KBALZcBaJAxJALAeQo4-35" value="&lt;b&gt;HTTP POST request&lt;/b&gt;" style="text;html=1;strokeColor=none;fillColor=none;align=center;verticalAlign=middle;whiteSpace=wrap;rounded=0;" vertex="1" parent="1">
          <mxGeometry x="500" y="155" width="80" height="30" as="geometry" />
        </mxCell>
        <mxCell id="3KBALZcBaJAxJALAeQo4-36" value="&lt;b&gt;Запрос&lt;/b&gt;" style="text;html=1;strokeColor=none;fillColor=none;align=center;verticalAlign=middle;whiteSpace=wrap;rounded=0;" vertex="1" parent="1">
          <mxGeometry x="490" y="310" width="60" height="30" as="geometry" />
        </mxCell>
        <mxCell id="3KBALZcBaJAxJALAeQo4-37" value="&lt;b&gt;Результат проверки условий&lt;/b&gt;" style="text;html=1;strokeColor=none;fillColor=none;align=center;verticalAlign=middle;whiteSpace=wrap;rounded=0;" vertex="1" parent="1">
          <mxGeometry x="320" y="315" width="60" height="30" as="geometry" />
        </mxCell>
      </root>
    </mxGraphModel>
  </diagram>
</mxfile>
$ git reset --hard a3775a5485af0af20375cedf46112db5f813322a 
    $ git push --force
